<svg xmlns="http://www.w3.org/2000/svg" viewBox="0 0 512 512" width="512" height="512">
  <defs>
    <linearGradient id="bgGrad" x1="0%" y1="0%" x2="100%" y2="100%">
      <stop offset="0%" stop-color="#141A26"/>
      <stop offset="100%" stop-color="#0B0F19"/>
    </linearGradient>
    <radialGradient id="glow" cx="72%" cy="18%" r="60%">
      <stop offset="0%" stop-color="#F5C542" stop-opacity="0.22"/>
      <stop offset="100%" stop-color="#F5C542" stop-opacity="0"/>
    </radialGradient>
  </defs>
  <rect x="0" y="0" width="512" height="512" rx="108" fill="url(#bgGrad)"/>
  <rect x="0" y="0" width="512" height="512" rx="108" fill="url(#glow)"/>
  <rect x="4" y="4" width="504" height="504" rx="104" fill="none" stroke="#F5C542" stroke-opacity="0.25" stroke-width="2"/>
  <g transform="translate(66,74) scale(0.95)">
      <defs>
        <linearGradient id="mg1" x1="0%" y1="100%" x2="100%" y2="0%">
          <stop offset="0%" stop-color="#F5C542"/><stop offset="100%" stop-color="#FFD66B"/>
        </linearGradient>
        <linearGradient id="mg2" x1="0%" y1="100%" x2="100%" y2="0%">
          <stop offset="0%" stop-color="#F5C542"/><stop offset="55%" stop-color="#FFD66B"/><stop offset="100%" stop-color="#FFFFFF"/>
        </linearGradient>
        <mask id="bc">
          <rect x="0" y="0" width="400" height="400" fill="white"/>
          <polyline points="94,340 152,340 118,258 172,258 108,140" fill="none" stroke="black" stroke-width="15" stroke-linecap="round" stroke-linejoin="round"/>
        </mask>
      </defs>
      <g mask="url(#bc)">
            <path d="M 62 372 L 130 372 L 210 96 L 178 96 Z" fill="url(#mg1)"/>
            <path d="M 196 96 L 232 96 L 300 300 L 252 300 Z" fill="url(#mg1)"/>
          </g>
          <path d="M 150 260 L 350 92 L 336 76 L 172 232 Z" fill="url(#mg2)"/>
          <path d="M 300 60 L 362 66 L 356 128 Z" fill="url(#mg2)"/>
          <path d="M 246 340 L 300 292 L 322 316 L 268 366 Z" fill="#A7B0C0" opacity="0.9"/>
    </g>
</svg>